<?xml version="1.0" encoding="UTF-8"?>
<svg width="9px" height="13px" viewBox="0 0 9 13" version="1.1" xmlns="http://www.w3.org/2000/svg" xmlns:xlink="http://www.w3.org/1999/xlink">
    <title>hourglass copy@1x</title>
    <g id="Page-1" stroke="none" stroke-width="1" fill="none" fill-rule="evenodd">
        <g id="hourglass-copy" fill="#000000" fill-rule="nonzero">
            <path d="M4.46875,8.60742188 C4.32364706,8.60742188 4.20588235,8.72117187 4.20588235,8.86132812 C4.20588235,9.00148438 4.32364706,9.11523438 4.46875,9.11523438 C4.61385294,9.11523438 4.73161765,9.00148438 4.73161765,8.86132812 C4.73161765,8.72117187 4.61385294,8.60742188 4.46875,8.60742188 Z" id="Path"></path>
            <path d="M7.88602941,11.5019277 L7.88602941,10.1308594 C7.88602941,8.70664844 6.9434386,7.39479102 5.59374467,6.9406543 C5.38936507,6.87197266 5.25735294,6.69901172 5.25735294,6.5 C5.25735294,6.29943945 5.39341324,6.12673242 5.59382353,6.05932031 C6.96486232,5.59799805 7.88602941,4.34657031 7.88602941,2.9453125 L7.88602941,1.49807227 C8.48018915,1.3820625 8.9375,0.873539062 8.9375,0.25390625 C8.9375,0.113699219 8.81978787,0 8.67463235,0 L0.262867647,0 C0.117712132,0 0,0.113699219 0,0.25390625 C0,0.866988281 0.452263787,1.37992969 1.05147059,1.49789453 L1.05147059,2.9453125 C1.05147059,4.34657031 1.97263768,5.59799805 3.34375533,6.0593457 C3.54813493,6.12802734 3.68014706,6.30098828 3.68014706,6.5 C3.68014706,6.70056055 3.54408676,6.87326758 3.34367647,6.94067969 C1.9940614,7.39479102 1.05147059,8.70664844 1.05147059,10.1308594 L1.05147059,11.5021055 C0.452263787,11.6200703 0,12.1329863 0,12.7460938 C0,12.8863008 0.117712132,13 0.262867647,13 L8.67463235,13 C8.81978787,13 8.9375,12.8863008 8.9375,12.7460938 C8.9375,12.4071543 8.80075625,12.0884004 8.55242518,11.8484844 C8.36731379,11.6696836 8.13675257,11.5508809 7.88602941,11.5019277 Z M0.570790809,0.505273438 L8.36705092,0.505273438 C8.25677794,0.806888672 7.96496857,1.015625 7.62316176,1.015625 L1.31433824,1.015625 C0.971637684,1.015625 0.679276287,0.800845703 0.570790809,0.505273438 Z M1.57720588,10.1308594 C1.57720588,8.9190918 2.37474632,7.80446875 3.5166171,7.42023242 C3.92692721,7.28218359 4.20588235,6.91836133 4.20588235,6.5 C4.20588235,6.08813867 3.92887243,5.71834961 3.51664338,5.57976758 C2.35658217,5.1894375 1.57720588,4.13075 1.57720588,2.9453125 L1.57720588,1.5234375 L7.36029412,1.5234375 L7.36029412,2.9453125 C7.36029412,4.13075 6.58091783,5.1894375 5.4208829,5.57976758 C5.01057279,5.71781641 4.73161765,6.08163867 4.73161765,6.5 C4.73161765,6.91186133 5.00862757,7.28165039 5.42085662,7.42023242 C6.56275368,7.80446875 7.36029412,8.9190918 7.36029412,10.1308594 L7.36029412,11.4765625 L6.81815588,11.4765625 C6.70075919,10.5742559 5.95305846,10.2444063 5.24788971,10.0070293 C5.02592426,9.93260938 4.82080864,9.80837305 4.65478143,9.64777734 C4.60546746,9.60009375 4.53854136,9.57328125 4.46877629,9.57328125 C4.39901121,9.57328125 4.33208511,9.60009375 4.28277114,9.64777734 C4.11458842,9.81045508 3.91507187,9.93136523 3.68966287,10.0071309 C2.98462555,10.2443809 2.23679338,10.5742051 2.11939669,11.4765625 L1.57720588,11.4765625 L1.57720588,10.1308594 Z M6.2862432,11.4765625 L2.65123051,11.4765625 C2.74930643,10.9611328 3.16758143,10.7205313 3.86249835,10.486709 C4.08083621,10.4133047 4.28684559,10.3040234 4.46872371,10.166 C4.65086471,10.3042266 4.85697923,10.4135078 5.07515938,10.4866836 C5.76999743,10.7205566 6.18819357,10.9611582 6.2862432,11.4765625 Z M0.570790809,12.4921875 C0.679276287,12.1966152 0.971637684,11.984375 1.31433824,11.984375 L7.62316176,11.984375 C7.83366618,11.984375 8.03165809,12.0636445 8.18067776,12.2075586 C8.26532114,12.2893418 8.3283568,12.3863594 8.36702463,12.4921875 L0.570790809,12.4921875 Z" id="Shape"></path>
            <path d="M6.7098807,2.72931445 C6.63238732,2.68307812 6.53559945,2.67888867 6.45413676,2.71819336 C5.84110313,3.01429883 5.15457169,3.17078125 4.46875,3.17078125 C3.78292831,3.17078125 3.09639688,3.01429883 2.48336324,2.71821875 C2.40190055,2.67886328 2.30513897,2.68305273 2.2276193,2.72933984 C2.15009963,2.77562695 2.10294118,2.85730859 2.10294118,2.9453125 C2.10294118,3.91487891 2.74044779,4.78087695 3.68961029,5.10039258 C3.91157574,5.1748125 4.11669136,5.29904883 4.28271857,5.45964453 C4.33203254,5.50732812 4.39895864,5.53414062 4.46872371,5.53414062 C4.53848879,5.53414062 4.60541489,5.50732812 4.65472886,5.45964453 C4.82291158,5.2969668 5.02242813,5.17605664 5.24783713,5.10029102 C5.71361232,4.94360547 6.11104191,4.65539648 6.39712077,4.26676758 C6.68330478,3.87803711 6.83455882,3.42110742 6.83455882,2.9453125 C6.83455882,2.85730859 6.78737408,2.77557617 6.7098807,2.72931445 Z M5.96869908,3.97249023 C5.74618162,4.27474023 5.43710184,4.49888867 5.07500165,4.62071289 C4.85666379,4.69411719 4.65065441,4.80342383 4.46877629,4.94142188 C4.28663529,4.80319531 4.08052077,4.69391406 3.86234062,4.62073828 C3.26184577,4.41862891 2.82172647,3.93514063 2.67864761,3.35587891 C3.24804522,3.56786523 3.85866048,3.67859375 4.46877629,3.67859375 C5.07899724,3.67859375 5.68977022,3.56778906 6.25924669,3.35572656 C6.20506967,3.57563477 6.10723033,3.78432031 5.96869908,3.97249023 Z" id="Shape"></path>
            <path d="M4.46875,7.0078125 C4.32359449,7.0078125 4.20588235,7.12151172 4.20588235,7.26171875 L4.20588235,7.84570312 C4.20588235,7.98591016 4.32359449,8.09960938 4.46875,8.09960938 C4.61390551,8.09960938 4.73161765,7.98591016 4.73161765,7.84570312 L4.73161765,7.26171875 C4.73161765,7.12151172 4.61390551,7.0078125 4.46875,7.0078125 Z" id="Path"></path>
        </g>
    </g>
</svg>